<?xml version="1.0" encoding="utf-8"?>
<!-- Generator: Adobe Illustrator 24.2.0, SVG Export Plug-In . SVG Version: 6.00 Build 0)  -->
<svg version="1.1" id="Layer_1" xmlns="http://www.w3.org/2000/svg" xmlns:xlink="http://www.w3.org/1999/xlink" x="0px" y="0px"
	 viewBox="0 0 441.8 649.9" style="enable-background:new 0 0 441.8 649.9;" xml:space="preserve">
<style type="text/css">
	.st0{fill:#7C6A43;}
</style>
<g>
	<path class="st0" d="M346.8,325.5c7.6-7.5,14.3-14.2,21-21c15.5-15.5,31-31.1,46.6-46.6c1.9-1.9,2.7-3.8,2.7-6.5
		c-0.1-43.2-0.1-86.4,0-129.6c0-3.9-1.2-4.7-4.8-4.7c-19.6,0.2-39.2,0.2-58.9,0c-3.9,0-4.7,1.3-4.7,4.9c0.1,46.3,0,92.5,0.1,138.8
		c0,3.4-1,5.7-3.4,8.1c-17.7,17.5-35.3,35.2-52.9,52.8c-1,0.9-2.2,1.6-3.6,2.6c1.6,1.8,2.6,2.9,3.6,3.9
		c17.8,17.8,35.6,35.6,53.4,53.4c2,2,2.9,3.9,2.9,6.8c-0.1,85.6-0.1,171.3,0,256.9c0,3.5-0.8,4.6-4.5,4.6
		c-82.4-0.1-164.9-0.1-247.3-0.1c-1.3,0-2.6,0-4.4,0c0-2,0-3.6,0-5.1c0-27.4,0-54.8,0-82.2c0-5.1,0-5.1-5-5.1
		c-27.6,0-55.3-0.1-82.9,0.1c-3.6,0-4.8-0.8-4.8-4.7C0.1,400.9,0.1,249,0.1,97.1c0-1.3,0-2.7,0-4.5c1.9,0,3.3,0,4.7,0
		c27.8,0,55.5-0.1,83.3,0.1c3.8,0,4.7-1.1,4.7-4.8c-0.1-27.5-0.1-55-0.1-82.5c0-1.6,0-3.2,0-5.3c1.6,0,3,0,4.3,0
		c82.5,0,165.1,0,247.6-0.1c3.5,0,4.3,1.1,4.3,4.4c-0.1,27.8-0.1,55.5-0.1,83.3c0,4.9,0,4.9,4.8,4.9c28,0,56,0.1,84-0.1
		c3.3,0,4.1,1,4.1,4.2c-0.1,55,0,110.1-0.2,165.1c0,2-1.1,4.6-2.6,6.1c-17.8,18-35.7,35.8-53.6,53.7c-3.4,3.5-3.4,3.5-0.1,6.8
		c17.8,17.8,35.6,35.6,53.4,53.4c2.1,2.1,3,4.2,3,7.1c-0.1,54.5-0.1,109.1-0.1,163.6c0,4.8,0,4.8-4.9,4.8c-6,0-12.1,0-18.1-0.1
		c-0.4,0-0.7-0.2-1.7-0.4c0-1.4,0-3,0-4.5c0-51,0-101.9,0.1-152.9c0-3.4-1-5.7-3.4-8.1c-21.1-20.9-42.1-42-63.1-63
		C349.6,327.4,348.3,326.6,346.8,325.5z M149.6,324.2c2.3,2.4,3.3,3.5,4.5,4.7c17.7,17.7,35.4,35.5,53.2,53.1
		c1.9,1.9,2.8,3.7,2.8,6.5c-0.1,54.9-0.1,109.8,0,164.7c0,3.5-1.2,4.3-4.4,4.3c-27.9-0.1-55.8,0-83.7-0.1c-3.6,0-5,0.9-4.9,4.7
		c0.2,19.6,0.2,39.2,0,58.9c0,3.7,1,4.9,4.8,4.8c66-0.1,132-0.1,198.1,0c3.5,0,4.6-1,4.6-4.6c-0.1-74.2-0.1-148.3,0-222.5
		c0-2.7-0.8-4.6-2.7-6.5c-20.6-20.5-41.2-41.2-61.8-61.7c-0.9-0.9-1.9-1.7-3.8-3.4c0,2.8,0,4.5,0,6.2c0,72.6,0,145.1,0,217.7
		c0,1.1-0.1,2.2,0,3.3c0.2,2.4-0.8,3.2-3.2,3.2c-5.4-0.1-10.9,0-16.3,0c-4.9,0-4.9,0-4.9-4.8c0-151.8,0-303.6,0-455.4
		c0-1.4,0.2-2.9,0.3-4.6c1.8,0,3.3,0,4.7,0c27.6,0,55.3-0.1,82.9,0.1c3.6,0,4.9-0.8,4.8-4.7c-0.2-19.6-0.2-39.2,0-58.9
		c0-3.8-1.2-4.8-4.8-4.8c-66,0.1-132,0.1-198.1,0c-3.6,0-4.6,1.2-4.6,4.7c0.1,19.7,0.1,39.5,0.1,59.2c0,1.3,0.2,2.6,0.3,4.3
		c30.9,0,61.4,0,92.3,0c0.1,1.8,0.2,3.3,0.2,4.7c0,54.7,0,109.3,0.1,164c0,2.8-0.7,4.8-2.8,6.8c-17.8,17.6-35.5,35.4-53.2,53.1
		C153,322.4,151.4,323,149.6,324.2z M92.7,324.9c0-67.6,0-135.2,0.1-202.9c0-3.6-0.8-4.9-4.7-4.8c-19.7,0.2-39.5,0.2-59.2,0
		c-3.6,0-4.5,1.2-4.5,4.6c0.1,135.5,0.1,271,0,406.5c0,3.8,1.3,4.8,4.9,4.8c19.4-0.2,38.7-0.1,58.1-0.1c5.3,0,5.3,0,5.3-5.2
		C92.7,460.2,92.7,392.6,92.7,324.9z M117.5,327.3c-0.2,2-0.4,3.1-0.4,4.3c0,65.6,0,131.3-0.1,196.9c0,3.6,1.2,4.6,4.7,4.6
		c19.6-0.1,39.2-0.2,58.9,0c3.7,0,4.8-0.9,4.8-4.8c-0.1-43.2-0.1-86.4,0-129.6c0-2.8-0.8-4.8-2.8-6.8c-20.6-20.4-41-41-61.6-61.5
		C120.1,329.6,119.1,328.8,117.5,327.3z M117.1,323.1c1.5-1.2,2-1.6,2.4-2c21.3-21.3,42.6-42.5,63.8-63.9c1.3-1.3,1.9-3.7,1.9-5.6
		c0.1-43.2,0.1-86.4,0.1-129.5c0-4.7,0-4.7-4.9-4.7c-19.4,0-38.7,0-58.1,0c-5.2,0-5.2,0-5.2,5.3c0,65.1,0,130.3,0,195.4
		C117.1,319.4,117.1,320.7,117.1,323.1z M256.2,323c1.6-1.3,2.2-1.8,2.8-2.4c21.1-21.1,42.3-42.2,63.3-63.4c1.3-1.3,2.1-3.6,2.1-5.5
		c0.1-43.3,0-86.6,0.2-129.9c0-3.6-1.1-4.5-4.6-4.5c-19.5,0.2-39,0.1-58.5,0.1c-5.2,0-5.2,0-5.2,5.2c0,65.1,0,130.3,0,195.4
		C256.2,319.3,256.2,320.6,256.2,323z"/>
</g>
</svg>
